<svg width="310" height="37" viewBox="0 0 310 37" fill="none" xmlns="http://www.w3.org/2000/svg">
<mask id="path-1-outside-1_613_10" maskUnits="userSpaceOnUse" x="-4" y="-4" width="318" height="45" fill="black">
<rect fill="white" x="-4" y="-4" width="318" height="45"/>
<path d="M18.2 36.8C14.6 36.8 11.45 36.0833 8.75 34.65C6.08333 33.1833 4 31.1333 2.5 28.5C1.03333 25.8667 0.3 22.8 0.3 19.3C0.3 15.7 1.06667 12.5167 2.6 9.75C4.16667 6.98333 6.3 4.81666 9 3.25C11.7333 1.65 14.8667 0.85 18.4 0.85C22.3333 0.85 25.4167 1.61667 27.65 3.15L26.3 11.1C25.3333 10.6333 24.3167 10.3 23.25 10.1C22.2167 9.86667 21.2333 9.75 20.3 9.75C17.5667 9.75 15.4167 10.5667 13.85 12.2C12.2833 13.8333 11.5 16.1 11.5 19C11.5 21.7333 12.25 23.8833 13.75 25.45C15.2833 26.9833 17.4 27.75 20.1 27.75C21.1667 27.75 22.1333 27.65 23 27.45C23.9 27.25 25 26.8833 26.3 26.35L27.7 34.25C24.8 35.95 21.6333 36.8 18.2 36.8ZM27.741 36L37.241 1.6H53.441L63.391 36H51.141L49.841 29.4H40.941L39.491 36H27.741ZM41.991 23.25H48.641L45.391 8.2L41.991 23.25ZM65.082 36V1.55H76.732C82.3987 1.55 86.6654 2.48333 89.532 4.35C92.432 6.18333 93.882 8.9 93.882 12.5C93.882 15 93.2487 17.1333 91.982 18.9C90.7487 20.6333 88.9987 21.9667 86.732 22.9C84.4654 23.8 81.7987 24.25 78.732 24.25H76.132V36H65.082ZM78.282 17.3C80.0487 17.3 81.4154 16.9333 82.382 16.2C83.3487 15.4667 83.832 14.3667 83.832 12.9C83.832 11.5333 83.3654 10.5167 82.432 9.85C81.4987 9.15 80.1487 8.8 78.382 8.8H76.132V17.3H78.282ZM101.855 36V9.5H94.1051V1.6H121.255V9.5H113.505V36H101.855ZM139.485 36.8C136.151 36.8 133.218 36.2 130.685 35C128.151 33.8 126.185 32.0833 124.785 29.85C123.385 27.5833 122.685 24.8833 122.685 21.75V1.6H133.785V21.25C133.785 23.4833 134.318 25.1333 135.385 26.2C136.485 27.2333 137.918 27.75 139.685 27.75C141.551 27.75 142.968 27.2167 143.935 26.15C144.935 25.0833 145.435 23.6167 145.435 21.75V1.6H156.685V21.75C156.685 24.7167 155.951 27.3333 154.485 29.6C153.018 31.8667 150.985 33.6333 148.385 34.9C145.818 36.1667 142.851 36.8 139.485 36.8ZM186.521 36.8C184.121 36.8 182.137 36.45 180.571 35.75C179.004 35.0167 177.754 34.0167 176.821 32.75C175.887 31.4833 175.187 30 174.721 28.3C174.254 26.6 173.937 24.7667 173.771 22.8H171.421V36H160.471V1.6H174.621C180.087 1.6 184.021 2.56666 186.421 4.5C188.854 6.4 190.071 8.98333 190.071 12.25C190.071 14.2167 189.537 15.9833 188.471 17.55C187.404 19.0833 185.687 20.3667 183.321 21.4C183.454 22.1333 183.571 22.7333 183.671 23.2C183.771 23.6667 183.921 24.1833 184.121 24.75C184.554 25.95 185.087 26.7833 185.721 27.25C186.387 27.7167 187.287 27.95 188.421 27.95C189.154 27.95 189.887 27.85 190.621 27.65L191.221 35.85C190.554 36.1167 189.837 36.3333 189.071 36.5C188.337 36.7 187.487 36.8 186.521 36.8ZM171.421 15.95H173.321C175.787 15.95 177.521 15.6833 178.521 15.15C179.554 14.5833 180.071 13.6333 180.071 12.3C180.071 11.1667 179.654 10.35 178.821 9.85C177.987 9.31667 176.671 9.05 174.871 9.05H171.421V15.95ZM193.26 36V1.6H217.41V9.2H205.41V15.3H216.36V21.6H205.41V28.15H217.41V36H193.26ZM245.698 36.8C242.098 36.8 238.948 36.0833 236.248 34.65C233.581 33.1833 231.498 31.1333 229.998 28.5C228.531 25.8667 227.798 22.8 227.798 19.3C227.798 15.7 228.565 12.5167 230.098 9.75C231.665 6.98333 233.798 4.81666 236.498 3.25C239.231 1.65 242.365 0.85 245.898 0.85C249.831 0.85 252.915 1.61667 255.148 3.15L253.798 11.1C252.831 10.6333 251.815 10.3 250.748 10.1C249.715 9.86667 248.731 9.75 247.798 9.75C245.065 9.75 242.915 10.5667 241.348 12.2C239.781 13.8333 238.998 16.1 238.998 19C238.998 21.7333 239.748 23.8833 241.248 25.45C242.781 26.9833 244.898 27.75 247.598 27.75C248.665 27.75 249.631 27.65 250.498 27.45C251.398 27.25 252.498 26.8833 253.798 26.35L255.198 34.25C252.298 35.95 249.131 36.8 245.698 36.8ZM263.027 36.8C261.461 36.8 259.927 36.5833 258.427 36.15C256.927 35.75 255.711 35.1167 254.777 34.25L257.027 27.65C257.494 27.85 257.994 28.0333 258.527 28.2C259.094 28.3667 259.644 28.45 260.177 28.45C262.411 28.45 263.527 27.1833 263.527 24.65V1.6H274.277V24C274.277 28.2 273.311 31.3833 271.377 33.55C269.444 35.7167 266.661 36.8 263.027 36.8ZM304.616 36.8C302.216 36.8 300.233 36.45 298.666 35.75C297.1 35.0167 295.85 34.0167 294.916 32.75C293.983 31.4833 293.283 30 292.816 28.3C292.35 26.6 292.033 24.7667 291.866 22.8H289.516V36H278.566V1.6H292.716C298.183 1.6 302.116 2.56666 304.516 4.5C306.95 6.4 308.166 8.98333 308.166 12.25C308.166 14.2167 307.633 15.9833 306.566 17.55C305.5 19.0833 303.783 20.3667 301.416 21.4C301.55 22.1333 301.666 22.7333 301.766 23.2C301.866 23.6667 302.016 24.1833 302.216 24.75C302.65 25.95 303.183 26.7833 303.816 27.25C304.483 27.7167 305.383 27.95 306.516 27.95C307.25 27.95 307.983 27.85 308.716 27.65L309.316 35.85C308.65 36.1167 307.933 36.3333 307.166 36.5C306.433 36.7 305.583 36.8 304.616 36.8ZM289.516 15.95H291.416C293.883 15.95 295.616 15.6833 296.616 15.15C297.65 14.5833 298.166 13.6333 298.166 12.3C298.166 11.1667 297.75 10.35 296.916 9.85C296.083 9.31667 294.766 9.05 292.966 9.05H289.516V15.95Z"/>
</mask>
<path d="M18.2 36.8C14.6 36.8 11.45 36.0833 8.75 34.65C6.08333 33.1833 4 31.1333 2.5 28.5C1.03333 25.8667 0.3 22.8 0.3 19.3C0.3 15.7 1.06667 12.5167 2.6 9.75C4.16667 6.98333 6.3 4.81666 9 3.25C11.7333 1.65 14.8667 0.85 18.4 0.85C22.3333 0.85 25.4167 1.61667 27.65 3.15L26.3 11.1C25.3333 10.6333 24.3167 10.3 23.25 10.1C22.2167 9.86667 21.2333 9.75 20.3 9.75C17.5667 9.75 15.4167 10.5667 13.85 12.2C12.2833 13.8333 11.5 16.1 11.5 19C11.5 21.7333 12.25 23.8833 13.75 25.45C15.2833 26.9833 17.4 27.75 20.1 27.75C21.1667 27.75 22.1333 27.65 23 27.45C23.9 27.25 25 26.8833 26.3 26.35L27.7 34.25C24.8 35.95 21.6333 36.8 18.2 36.8ZM27.741 36L37.241 1.6H53.441L63.391 36H51.141L49.841 29.4H40.941L39.491 36H27.741ZM41.991 23.25H48.641L45.391 8.2L41.991 23.25ZM65.082 36V1.55H76.732C82.3987 1.55 86.6654 2.48333 89.532 4.35C92.432 6.18333 93.882 8.9 93.882 12.5C93.882 15 93.2487 17.1333 91.982 18.9C90.7487 20.6333 88.9987 21.9667 86.732 22.9C84.4654 23.8 81.7987 24.25 78.732 24.25H76.132V36H65.082ZM78.282 17.3C80.0487 17.3 81.4154 16.9333 82.382 16.2C83.3487 15.4667 83.832 14.3667 83.832 12.9C83.832 11.5333 83.3654 10.5167 82.432 9.85C81.4987 9.15 80.1487 8.8 78.382 8.8H76.132V17.3H78.282ZM101.855 36V9.5H94.1051V1.6H121.255V9.5H113.505V36H101.855ZM139.485 36.8C136.151 36.8 133.218 36.2 130.685 35C128.151 33.8 126.185 32.0833 124.785 29.85C123.385 27.5833 122.685 24.8833 122.685 21.75V1.6H133.785V21.25C133.785 23.4833 134.318 25.1333 135.385 26.2C136.485 27.2333 137.918 27.75 139.685 27.75C141.551 27.75 142.968 27.2167 143.935 26.15C144.935 25.0833 145.435 23.6167 145.435 21.75V1.6H156.685V21.75C156.685 24.7167 155.951 27.3333 154.485 29.6C153.018 31.8667 150.985 33.6333 148.385 34.9C145.818 36.1667 142.851 36.8 139.485 36.8ZM186.521 36.8C184.121 36.8 182.137 36.45 180.571 35.75C179.004 35.0167 177.754 34.0167 176.821 32.75C175.887 31.4833 175.187 30 174.721 28.3C174.254 26.6 173.937 24.7667 173.771 22.8H171.421V36H160.471V1.6H174.621C180.087 1.6 184.021 2.56666 186.421 4.5C188.854 6.4 190.071 8.98333 190.071 12.25C190.071 14.2167 189.537 15.9833 188.471 17.55C187.404 19.0833 185.687 20.3667 183.321 21.4C183.454 22.1333 183.571 22.7333 183.671 23.2C183.771 23.6667 183.921 24.1833 184.121 24.75C184.554 25.95 185.087 26.7833 185.721 27.25C186.387 27.7167 187.287 27.95 188.421 27.95C189.154 27.95 189.887 27.85 190.621 27.65L191.221 35.85C190.554 36.1167 189.837 36.3333 189.071 36.5C188.337 36.7 187.487 36.8 186.521 36.8ZM171.421 15.95H173.321C175.787 15.95 177.521 15.6833 178.521 15.15C179.554 14.5833 180.071 13.6333 180.071 12.3C180.071 11.1667 179.654 10.35 178.821 9.85C177.987 9.31667 176.671 9.05 174.871 9.05H171.421V15.95ZM193.26 36V1.6H217.41V9.2H205.41V15.3H216.36V21.6H205.41V28.15H217.41V36H193.26ZM245.698 36.8C242.098 36.8 238.948 36.0833 236.248 34.65C233.581 33.1833 231.498 31.1333 229.998 28.5C228.531 25.8667 227.798 22.8 227.798 19.3C227.798 15.7 228.565 12.5167 230.098 9.75C231.665 6.98333 233.798 4.81666 236.498 3.25C239.231 1.65 242.365 0.85 245.898 0.85C249.831 0.85 252.915 1.61667 255.148 3.15L253.798 11.1C252.831 10.6333 251.815 10.3 250.748 10.1C249.715 9.86667 248.731 9.75 247.798 9.75C245.065 9.75 242.915 10.5667 241.348 12.2C239.781 13.8333 238.998 16.1 238.998 19C238.998 21.7333 239.748 23.8833 241.248 25.45C242.781 26.9833 244.898 27.75 247.598 27.75C248.665 27.75 249.631 27.65 250.498 27.45C251.398 27.25 252.498 26.8833 253.798 26.35L255.198 34.25C252.298 35.95 249.131 36.8 245.698 36.8ZM263.027 36.8C261.461 36.8 259.927 36.5833 258.427 36.15C256.927 35.75 255.711 35.1167 254.777 34.25L257.027 27.65C257.494 27.85 257.994 28.0333 258.527 28.2C259.094 28.3667 259.644 28.45 260.177 28.45C262.411 28.45 263.527 27.1833 263.527 24.65V1.6H274.277V24C274.277 28.2 273.311 31.3833 271.377 33.55C269.444 35.7167 266.661 36.8 263.027 36.8ZM304.616 36.8C302.216 36.8 300.233 36.45 298.666 35.75C297.1 35.0167 295.85 34.0167 294.916 32.75C293.983 31.4833 293.283 30 292.816 28.3C292.35 26.6 292.033 24.7667 291.866 22.8H289.516V36H278.566V1.6H292.716C298.183 1.6 302.116 2.56666 304.516 4.5C306.95 6.4 308.166 8.98333 308.166 12.25C308.166 14.2167 307.633 15.9833 306.566 17.55C305.5 19.0833 303.783 20.3667 301.416 21.4C301.55 22.1333 301.666 22.7333 301.766 23.2C301.866 23.6667 302.016 24.1833 302.216 24.75C302.65 25.95 303.183 26.7833 303.816 27.25C304.483 27.7167 305.383 27.95 306.516 27.95C307.25 27.95 307.983 27.85 308.716 27.65L309.316 35.85C308.65 36.1167 307.933 36.3333 307.166 36.5C306.433 36.7 305.583 36.8 304.616 36.8ZM289.516 15.95H291.416C293.883 15.95 295.616 15.6833 296.616 15.15C297.65 14.5833 298.166 13.6333 298.166 12.3C298.166 11.1667 297.75 10.35 296.916 9.85C296.083 9.31667 294.766 9.05 292.966 9.05H289.516V15.95Z" fill="#99DBFE"/>
<path d="M8.75 34.65L6.82233 38.1549L6.84828 38.1691L6.87444 38.183L8.75 34.65ZM2.5 28.5L-0.994541 30.4463L-0.985189 30.4631L-0.975677 30.4798L2.5 28.5ZM2.6 9.75L-0.880688 7.77901L-0.889725 7.79497L-0.898615 7.811L2.6 9.75ZM9 3.25L11.0075 6.70975L11.0141 6.70592L11.0207 6.70206L9 3.25ZM27.65 3.15L31.5935 3.81966L32.0215 1.29934L29.914 -0.147606L27.65 3.15ZM26.3 11.1L24.561 14.7022L29.3527 17.0155L30.2435 11.7697L26.3 11.1ZM23.25 10.1L22.369 14.0018L22.4406 14.0179L22.5128 14.0315L23.25 10.1ZM13.85 12.2L16.7367 14.9689H16.7367L13.85 12.2ZM13.75 25.45L10.8608 28.2163L10.8908 28.2477L10.9216 28.2784L13.75 25.45ZM23 27.45L22.1323 23.5452L22.1164 23.5488L22.1006 23.5524L23 27.45ZM26.3 26.35L30.2386 25.652L29.3727 20.7659L24.7818 22.6493L26.3 26.35ZM27.7 34.25L29.7229 37.7008L32.1244 36.293L31.6386 33.552L27.7 34.25ZM18.2 32.8C15.1378 32.8 12.6534 32.1935 10.6256 31.117L6.87444 38.183C10.2466 39.9732 14.0622 40.8 18.2 40.8V32.8ZM10.6777 31.1451C8.65496 30.0326 7.10866 28.5092 5.97568 26.5202L-0.975677 30.4798C0.89134 33.7575 3.51171 36.334 6.82233 38.1549L10.6777 31.1451ZM5.99454 26.5537C4.90933 24.6052 4.3 22.2294 4.3 19.3H-3.7C-3.7 23.3706 -2.84266 27.1281 -0.994541 30.4463L5.99454 26.5537ZM4.3 19.3C4.3 16.2834 4.93728 13.7844 6.09862 11.689L-0.898615 7.811C-2.80395 11.2489 -3.7 15.1166 -3.7 19.3H4.3ZM6.08069 11.721C7.30405 9.56059 8.93393 7.91294 11.0075 6.70975L6.99249 -0.209755C3.66607 1.72039 1.02928 4.40608 -0.880688 7.77901L6.08069 11.721ZM11.0207 6.70206C13.0723 5.5011 15.4928 4.85 18.4 4.85V-3.15C14.2405 -3.15 10.3943 -2.2011 6.97928 -0.202057L11.0207 6.70206ZM18.4 4.85C21.8732 4.85 24.0576 5.5356 25.386 6.4476L29.914 -0.147606C26.7757 -2.30227 22.7935 -3.15 18.4 -3.15V4.85ZM23.7065 2.48034L22.3565 10.4303L30.2435 11.7697L31.5935 3.81966L23.7065 2.48034ZM28.039 7.4978C26.7509 6.87593 25.397 6.43285 23.9872 6.16851L22.5128 14.0315C23.2364 14.1671 23.9158 14.3907 24.561 14.7022L28.039 7.4978ZM24.131 6.19823C22.8467 5.90821 21.5664 5.75 20.3 5.75V13.75C20.9003 13.75 21.5867 13.8251 22.369 14.0018L24.131 6.19823ZM20.3 5.75C16.7203 5.75 13.4377 6.85143 10.9633 9.4311L16.7367 14.9689C17.3957 14.2819 18.413 13.75 20.3 13.75V5.75ZM10.9633 9.4311C8.4973 12.002 7.5 15.3702 7.5 19H15.5C15.5 16.8298 16.0694 15.6647 16.7367 14.9689L10.9633 9.4311ZM7.5 19C7.5 22.4835 8.47494 25.7244 10.8608 28.2163L16.6392 22.6837C16.0251 22.0422 15.5 20.9832 15.5 19H7.5ZM10.9216 28.2784C13.3794 30.7363 16.6142 31.75 20.1 31.75V23.75C18.1858 23.75 17.1873 23.2304 16.5784 22.6216L10.9216 28.2784ZM20.1 31.75C21.4115 31.75 22.6863 31.6275 23.8994 31.3476L22.1006 23.5524C21.5804 23.6725 20.9218 23.75 20.1 23.75V31.75ZM23.8677 31.3548C25.0731 31.0869 26.4047 30.6306 27.8182 30.0507L24.7818 22.6493C23.5953 23.1361 22.7269 23.4131 22.1323 23.5452L23.8677 31.3548ZM22.3614 27.048L23.7614 34.948L31.6386 33.552L30.2386 25.652L22.3614 27.048ZM25.6771 30.7992C23.4042 32.1316 20.9381 32.8 18.2 32.8V40.8C22.3285 40.8 26.1958 39.7684 29.7229 37.7008L25.6771 30.7992ZM27.741 36L23.8853 34.9352L22.4866 40H27.741V36ZM37.241 1.6V-2.4H34.1959L33.3853 0.535202L37.241 1.6ZM53.441 1.6L57.2835 0.488579L56.448 -2.4H53.441V1.6ZM63.391 36V40H68.712L67.2335 34.8886L63.391 36ZM51.141 36L47.2164 36.773L47.852 40H51.141V36ZM49.841 29.4L53.7656 28.627L53.13 25.4H49.841V29.4ZM40.941 29.4V25.4H37.7244L37.0342 28.5417L40.941 29.4ZM39.491 36V40H42.7076L43.3978 36.8583L39.491 36ZM41.991 23.25L38.0893 22.3686L36.9866 27.25H41.991V23.25ZM48.641 23.25V27.25H53.597L52.5509 22.4057L48.641 23.25ZM45.391 8.2L49.3009 7.35567L41.4893 7.31856L45.391 8.2ZM31.5967 37.0648L41.0967 2.66479L33.3853 0.535202L23.8853 34.9352L31.5967 37.0648ZM37.241 5.6H53.441V-2.4H37.241V5.6ZM49.5985 2.71142L59.5485 37.1114L67.2335 34.8886L57.2835 0.488579L49.5985 2.71142ZM63.391 32H51.141V40H63.391V32ZM55.0656 35.227L53.7656 28.627L45.9164 30.173L47.2164 36.773L55.0656 35.227ZM49.841 25.4H40.941V33.4H49.841V25.4ZM37.0342 28.5417L35.5842 35.1417L43.3978 36.8583L44.8478 30.2583L37.0342 28.5417ZM39.491 32H27.741V40H39.491V32ZM41.991 27.25H48.641V19.25H41.991V27.25ZM52.5509 22.4057L49.3009 7.35567L41.4811 9.04432L44.7311 24.0943L52.5509 22.4057ZM41.4893 7.31856L38.0893 22.3686L45.8927 24.1314L49.2927 9.08144L41.4893 7.31856ZM65.082 36H61.082V40H65.082V36ZM65.082 1.55V-2.45H61.082V1.55H65.082ZM89.532 4.35L87.3493 7.70199L87.3719 7.71667L87.3946 7.73103L89.532 4.35ZM91.982 18.9L88.7312 16.5693L88.7271 16.5751L88.7229 16.581L91.982 18.9ZM86.732 22.9L88.2082 26.6177L88.2317 26.6083L88.255 26.5987L86.732 22.9ZM76.132 24.25V20.25H72.132V24.25H76.132ZM76.132 36V40H80.132V36H76.132ZM82.382 16.2L79.9645 13.0132L82.382 16.2ZM82.432 9.85L80.032 13.05L80.0692 13.0779L80.1071 13.1049L82.432 9.85ZM76.132 8.8V4.8H72.132V8.8H76.132ZM76.132 17.3H72.132V21.3H76.132V17.3ZM69.082 36V1.55H61.082V36H69.082ZM65.082 5.55H76.732V-2.45H65.082V5.55ZM76.732 5.55C82.081 5.55 85.4311 6.45293 87.3493 7.70199L91.7147 0.998009C87.8996 -1.48627 82.7163 -2.45 76.732 -2.45V5.55ZM87.3946 7.73103C89.0677 8.78873 89.882 10.1902 89.882 12.5H97.882C97.882 7.60979 95.7964 3.57794 91.6695 0.968964L87.3946 7.73103ZM89.882 12.5C89.882 14.2939 89.4401 15.5806 88.7312 16.5693L95.2328 21.2308C97.0573 18.686 97.882 15.7061 97.882 12.5H89.882ZM88.7229 16.581C87.99 17.6109 86.887 18.5104 85.209 19.2013L88.255 26.5987C91.1104 25.423 93.5074 23.6557 95.2412 21.219L88.7229 16.581ZM85.2559 19.1823C83.5628 19.8546 81.4184 20.25 78.732 20.25V28.25C82.179 28.25 85.3679 27.7454 88.2082 26.6177L85.2559 19.1823ZM78.732 20.25H76.132V28.25H78.732V20.25ZM72.132 24.25V36H80.132V24.25H72.132ZM76.132 32H65.082V40H76.132V32ZM78.282 21.3C80.5384 21.3 82.8839 20.8401 84.7996 19.3868L79.9645 13.0132C79.9469 13.0266 79.559 13.3 78.282 13.3V21.3ZM84.7996 19.3868C86.9751 17.7364 87.832 15.3256 87.832 12.9H79.832C79.832 13.1987 79.7828 13.272 79.8075 13.2159C79.8198 13.1878 79.8431 13.1454 79.8791 13.0999C79.9149 13.0546 79.9477 13.0259 79.9645 13.0132L84.7996 19.3868ZM87.832 12.9C87.832 10.5228 86.9512 8.16238 84.757 6.59506L80.1071 13.1049C80.0748 13.0818 80.0236 13.0388 79.9692 12.9734C79.9143 12.9074 79.8736 12.8396 79.8467 12.7812C79.7926 12.6632 79.832 12.6677 79.832 12.9H87.832ZM84.832 6.65C82.9316 5.2247 80.5927 4.8 78.382 4.8V12.8C79.7047 12.8 80.0658 13.0753 80.032 13.05L84.832 6.65ZM78.382 4.8H76.132V12.8H78.382V4.8ZM72.132 8.8V17.3H80.132V8.8H72.132ZM76.132 21.3H78.282V13.3H76.132V21.3ZM101.855 36H97.8551V40H101.855V36ZM101.855 9.5H105.855V5.5H101.855V9.5ZM94.1051 9.5H90.1051V13.5H94.1051V9.5ZM94.1051 1.6V-2.4H90.1051V1.6H94.1051ZM121.255 1.6H125.255V-2.4H121.255V1.6ZM121.255 9.5V13.5H125.255V9.5H121.255ZM113.505 9.5V5.5H109.505V9.5H113.505ZM113.505 36V40H117.505V36H113.505ZM105.855 36V9.5H97.8551V36H105.855ZM101.855 5.5H94.1051V13.5H101.855V5.5ZM98.1051 9.5V1.6H90.1051V9.5H98.1051ZM94.1051 5.6H121.255V-2.4H94.1051V5.6ZM117.255 1.6V9.5H125.255V1.6H117.255ZM121.255 5.5H113.505V13.5H121.255V5.5ZM109.505 9.5V36H117.505V9.5H109.505ZM113.505 32H101.855V40H113.505V32ZM130.685 35L132.397 31.385L130.685 35ZM124.785 29.85L121.382 31.952L121.389 31.9633L121.396 31.9745L124.785 29.85ZM122.685 1.6V-2.4H118.685V1.6H122.685ZM133.785 1.6H137.785V-2.4H133.785V1.6ZM135.385 26.2L132.556 29.0284L132.601 29.0726L132.646 29.1154L135.385 26.2ZM143.935 26.15L141.017 23.4142L140.994 23.4389L140.971 23.4639L143.935 26.15ZM145.435 1.6V-2.4H141.435V1.6H145.435ZM156.685 1.6H160.685V-2.4H156.685V1.6ZM154.485 29.6L157.843 31.773L154.485 29.6ZM148.385 34.9L146.633 31.304L146.624 31.3085L146.615 31.313L148.385 34.9ZM139.485 32.8C136.633 32.8 134.303 32.288 132.397 31.385L128.972 38.615C132.133 40.112 135.67 40.8 139.485 40.8V32.8ZM132.397 31.385C130.508 30.49 129.142 29.2706 128.174 27.7255L121.396 31.9745C123.227 34.8961 125.795 37.11 128.972 38.615L132.397 31.385ZM128.188 27.748C127.242 26.217 126.685 24.2734 126.685 21.75H118.685C118.685 25.4933 119.527 28.9496 121.382 31.952L128.188 27.748ZM126.685 21.75V1.6H118.685V21.75H126.685ZM122.685 5.6H133.785V-2.4H122.685V5.6ZM129.785 1.6V21.25H137.785V1.6H129.785ZM129.785 21.25C129.785 24.0378 130.445 26.9167 132.556 29.0284L138.213 23.3716C138.192 23.35 137.785 22.9288 137.785 21.25H129.785ZM132.646 29.1154C134.613 30.9628 137.086 31.75 139.685 31.75V23.75C138.75 23.75 138.357 23.5038 138.123 23.2846L132.646 29.1154ZM139.685 31.75C142.325 31.75 144.964 30.9706 146.899 28.8361L140.971 23.4639C140.936 23.5019 140.883 23.5519 140.738 23.6065C140.571 23.6692 140.245 23.75 139.685 23.75V31.75ZM146.853 28.8858C148.725 26.8891 149.435 24.3409 149.435 21.75H141.435C141.435 22.8925 141.145 23.2776 141.017 23.4142L146.853 28.8858ZM149.435 21.75V1.6H141.435V21.75H149.435ZM145.435 5.6H156.685V-2.4H145.435V5.6ZM152.685 1.6V21.75H160.685V1.6H152.685ZM152.685 21.75C152.685 24.0248 152.133 25.8711 151.126 27.427L157.843 31.773C159.77 28.7956 160.685 25.4086 160.685 21.75H152.685ZM151.126 27.427C150.084 29.0381 148.626 30.3329 146.633 31.304L150.137 38.496C153.343 36.9338 155.952 34.6952 157.843 31.773L151.126 27.427ZM146.615 31.313C144.687 32.2641 142.345 32.8 139.485 32.8V40.8C143.358 40.8 146.949 40.0693 150.155 38.487L146.615 31.313ZM180.571 35.75L178.875 39.3728L178.907 39.3877L178.939 39.402L180.571 35.75ZM176.821 32.75L180.041 30.3772L176.821 32.75ZM174.721 28.3L178.578 27.2411L174.721 28.3ZM173.771 22.8L177.756 22.4622L177.446 18.8H173.771V22.8ZM171.421 22.8V18.8H167.421V22.8H171.421ZM171.421 36V40H175.421V36H171.421ZM160.471 36H156.471V40H160.471V36ZM160.471 1.6V-2.4H156.471V1.6H160.471ZM186.421 4.5L183.911 7.61501L183.935 7.63406L183.959 7.65275L186.421 4.5ZM188.471 17.55L191.754 19.8343L191.766 19.8178L191.777 19.8012L188.471 17.55ZM183.321 21.4L181.72 17.7342L178.819 19.0009L179.385 22.1155L183.321 21.4ZM183.671 23.2L187.582 22.3619L187.582 22.3619L183.671 23.2ZM184.121 24.75L180.349 26.0813L180.354 26.0949L180.358 26.1086L184.121 24.75ZM185.721 27.25L183.348 30.4702L183.387 30.4991L183.427 30.5269L185.721 27.25ZM190.621 27.65L194.61 27.3581L194.255 22.5126L189.568 23.7909L190.621 27.65ZM191.221 35.85L192.706 39.5639L195.424 38.477L195.21 35.5581L191.221 35.85ZM189.071 36.5L188.221 32.5913L188.119 32.6135L188.018 32.6409L189.071 36.5ZM171.421 15.95H167.421V19.95H171.421V15.95ZM178.521 15.15L180.403 18.6794L180.424 18.6684L180.444 18.6572L178.521 15.15ZM178.821 9.85L176.664 13.2191L176.713 13.2502L176.763 13.28L178.821 9.85ZM171.421 9.05V5.05H167.421V9.05H171.421ZM186.521 32.8C184.474 32.8 183.094 32.4963 182.202 32.098L178.939 39.402C181.181 40.4037 183.768 40.8 186.521 40.8V32.8ZM182.266 32.1272C181.243 31.6481 180.54 31.0545 180.041 30.3772L173.6 35.1228C174.968 36.9789 176.765 38.3852 178.875 39.3728L182.266 32.1272ZM180.041 30.3772C179.432 29.5505 178.93 28.5245 178.578 27.2411L170.863 29.3589C171.444 31.4755 172.343 33.4162 173.6 35.1228L180.041 30.3772ZM178.578 27.2411C178.183 25.8031 177.905 24.2136 177.756 22.4622L169.785 23.1378C169.97 25.3198 170.325 27.3969 170.863 29.3589L178.578 27.2411ZM173.771 18.8H171.421V26.8H173.771V18.8ZM167.421 22.8V36H175.421V22.8H167.421ZM171.421 32H160.471V40H171.421V32ZM164.471 36V1.6H156.471V36H164.471ZM160.471 5.6H174.621V-2.4H160.471V5.6ZM174.621 5.6C179.805 5.6 182.594 6.55343 183.911 7.61501L188.93 1.38498C185.448 -1.4201 180.369 -2.4 174.621 -2.4V5.6ZM183.959 7.65275C185.358 8.74512 186.071 10.1321 186.071 12.25H194.071C194.071 7.83453 192.35 4.05488 188.882 1.34724L183.959 7.65275ZM186.071 12.25C186.071 13.4457 185.761 14.4219 185.164 15.2988L191.777 19.8012C193.313 17.5447 194.071 14.9876 194.071 12.25H186.071ZM185.187 15.2657C184.675 16.0019 183.658 16.8882 181.72 17.7342L184.921 25.0658C187.717 23.8452 190.133 22.1648 191.754 19.8343L185.187 15.2657ZM179.385 22.1155C179.522 22.8699 179.647 23.5148 179.759 24.0381L187.582 22.3619C187.494 21.9519 187.386 21.3968 187.256 20.6845L179.385 22.1155ZM179.759 24.0381C179.903 24.7082 180.106 25.3926 180.349 26.0813L187.893 23.4187C187.736 22.9741 187.638 22.6251 187.582 22.3619L179.759 24.0381ZM180.358 26.1086C180.909 27.6321 181.794 29.3249 183.348 30.4702L188.094 24.0298C188.258 24.1512 188.283 24.2249 188.215 24.1188C188.147 24.0124 188.026 23.7877 187.883 23.3914L180.358 26.1086ZM183.427 30.5269C184.983 31.6163 186.779 31.95 188.421 31.95V23.95C188.122 23.95 187.959 23.9185 187.9 23.903C187.847 23.8893 187.905 23.8966 188.015 23.9731L183.427 30.5269ZM188.421 31.95C189.522 31.95 190.609 31.7992 191.673 31.5091L189.568 23.7909C189.165 23.9008 188.786 23.95 188.421 23.95V31.95ZM186.631 27.9419L187.231 36.1419L195.21 35.5581L194.61 27.3581L186.631 27.9419ZM189.735 32.1361C189.293 32.3131 188.79 32.4675 188.221 32.5913L189.92 40.4087C190.884 40.1992 191.815 39.9202 192.706 39.5639L189.735 32.1361ZM188.018 32.6409C187.706 32.7261 187.223 32.8 186.521 32.8V40.8C187.752 40.8 188.969 40.6739 190.123 40.3591L188.018 32.6409ZM171.421 19.95H173.321V11.95H171.421V19.95ZM173.321 19.95C175.843 19.95 178.459 19.7162 180.403 18.6794L176.638 11.6206C176.692 11.592 176.5 11.6984 175.862 11.7965C175.26 11.8893 174.425 11.95 173.321 11.95V19.95ZM180.444 18.6572C182.95 17.283 184.071 14.8609 184.071 12.3H176.071C176.071 12.4526 176.043 12.3344 176.169 12.1014C176.231 11.9881 176.311 11.8823 176.401 11.7941C176.49 11.7077 176.564 11.6612 176.597 11.6427L180.444 18.6572ZM184.071 12.3C184.071 10.0378 183.136 7.77451 180.879 6.42003L176.763 13.28C176.577 13.1685 176.348 12.9555 176.195 12.6554C176.056 12.3833 176.071 12.2188 176.071 12.3H184.071ZM180.977 6.48092C179.161 5.31862 176.896 5.05 174.871 5.05V13.05C175.588 13.05 176.088 13.1044 176.414 13.1704C176.75 13.2385 176.784 13.2954 176.664 13.2191L180.977 6.48092ZM174.871 5.05H171.421V13.05H174.871V5.05ZM167.421 9.05V15.95H175.421V9.05H167.421ZM193.26 36H189.26V40H193.26V36ZM193.26 1.6V-2.4H189.26V1.6H193.26ZM217.41 1.6H221.41V-2.4H217.41V1.6ZM217.41 9.2V13.2H221.41V9.2H217.41ZM205.41 9.2V5.2H201.41V9.2H205.41ZM205.41 15.3H201.41V19.3H205.41V15.3ZM216.36 15.3H220.36V11.3H216.36V15.3ZM216.36 21.6V25.6H220.36V21.6H216.36ZM205.41 21.6V17.6H201.41V21.6H205.41ZM205.41 28.15H201.41V32.15H205.41V28.15ZM217.41 28.15H221.41V24.15H217.41V28.15ZM217.41 36V40H221.41V36H217.41ZM197.26 36V1.6H189.26V36H197.26ZM193.26 5.6H217.41V-2.4H193.26V5.6ZM213.41 1.6V9.2H221.41V1.6H213.41ZM217.41 5.2H205.41V13.2H217.41V5.2ZM201.41 9.2V15.3H209.41V9.2H201.41ZM205.41 19.3H216.36V11.3H205.41V19.3ZM212.36 15.3V21.6H220.36V15.3H212.36ZM216.36 17.6H205.41V25.6H216.36V17.6ZM201.41 21.6V28.15H209.41V21.6H201.41ZM205.41 32.15H217.41V24.15H205.41V32.15ZM213.41 28.15V36H221.41V28.15H213.41ZM217.41 32H193.26V40H217.41V32ZM236.248 34.65L234.32 38.1549L234.346 38.1691L234.372 38.183L236.248 34.65ZM229.998 28.5L226.504 30.4463L226.513 30.4631L226.522 30.4798L229.998 28.5ZM230.098 9.75L226.617 7.77901L226.608 7.79497L226.599 7.811L230.098 9.75ZM236.498 3.25L238.506 6.70975L238.512 6.70592L238.519 6.70206L236.498 3.25ZM255.148 3.15L259.092 3.81966L259.52 1.29934L257.412 -0.147606L255.148 3.15ZM253.798 11.1L252.059 14.7022L256.851 17.0155L257.742 11.7697L253.798 11.1ZM250.748 10.1L249.867 14.0018L249.939 14.0179L250.011 14.0315L250.748 10.1ZM241.348 12.2L244.235 14.9689L241.348 12.2ZM241.248 25.45L238.359 28.2163L238.389 28.2477L238.42 28.2784L241.248 25.45ZM250.498 27.45L249.63 23.5452L249.614 23.5488L249.599 23.5524L250.498 27.45ZM253.798 26.35L257.737 25.652L256.871 20.7659L252.28 22.6493L253.798 26.35ZM255.198 34.25L257.221 37.7008L259.622 36.293L259.137 33.552L255.198 34.25ZM245.698 32.8C242.636 32.8 240.151 32.1935 238.124 31.117L234.372 38.183C237.745 39.9732 241.56 40.8 245.698 40.8V32.8ZM238.176 31.1451C236.153 30.0326 234.607 28.5092 233.474 26.5202L226.522 30.4798C228.389 33.7575 231.01 36.334 234.32 38.1549L238.176 31.1451ZM233.493 26.5537C232.407 24.6052 231.798 22.2294 231.798 19.3H223.798C223.798 23.3706 224.655 27.1281 226.504 30.4463L233.493 26.5537ZM231.798 19.3C231.798 16.2834 232.435 13.7844 233.597 11.689L226.599 7.811C224.694 11.2489 223.798 15.1166 223.798 19.3H231.798ZM233.579 11.721C234.802 9.56059 236.432 7.91294 238.506 6.70975L234.491 -0.209755C231.164 1.72039 228.527 4.40608 226.617 7.77901L233.579 11.721ZM238.519 6.70206C240.57 5.5011 242.991 4.85 245.898 4.85V-3.15C241.739 -3.15 237.892 -2.2011 234.477 -0.202057L238.519 6.70206ZM245.898 4.85C249.371 4.85 251.556 5.5356 252.884 6.4476L257.412 -0.147606C254.274 -2.30227 250.292 -3.15 245.898 -3.15V4.85ZM251.204 2.48034L249.855 10.4303L257.742 11.7697L259.092 3.81966L251.204 2.48034ZM255.537 7.4978C254.249 6.87593 252.895 6.43285 251.485 6.16851L250.011 14.0315C250.734 14.1671 251.414 14.3907 252.059 14.7022L255.537 7.4978ZM251.629 6.19823C250.345 5.90821 249.064 5.75 247.798 5.75V13.75C248.398 13.75 249.085 13.8251 249.867 14.0018L251.629 6.19823ZM247.798 5.75C244.218 5.75 240.936 6.85143 238.461 9.4311L244.235 14.9689C244.894 14.2819 245.911 13.75 247.798 13.75V5.75ZM238.461 9.4311C235.995 12.002 234.998 15.3702 234.998 19H242.998C242.998 16.8298 243.567 15.6647 244.235 14.9689L238.461 9.4311ZM234.998 19C234.998 22.4835 235.973 25.7244 238.359 28.2163L244.137 22.6837C243.523 22.0422 242.998 20.9832 242.998 19H234.998ZM238.42 28.2784C240.877 30.7363 244.112 31.75 247.598 31.75V23.75C245.684 23.75 244.685 23.2304 244.076 22.6216L238.42 28.2784ZM247.598 31.75C248.91 31.75 250.184 31.6275 251.397 31.3476L249.599 23.5524C249.078 23.6725 248.42 23.75 247.598 23.75V31.75ZM251.366 31.3548C252.571 31.0869 253.903 30.6306 255.316 30.0507L252.28 22.6493C251.093 23.1361 250.225 23.4131 249.63 23.5452L251.366 31.3548ZM249.859 27.048L251.259 34.948L259.137 33.552L257.737 25.652L249.859 27.048ZM253.175 30.7992C250.902 32.1316 248.436 32.8 245.698 32.8V40.8C249.827 40.8 253.694 39.7684 257.221 37.7008L253.175 30.7992ZM258.427 36.15L259.538 32.3071L259.498 32.2957L259.458 32.2851L258.427 36.15ZM254.777 34.25L250.991 32.9593L250.154 35.4154L252.056 37.1812L254.777 34.25ZM257.027 27.65L258.603 23.9734L254.634 22.2726L253.241 26.3593L257.027 27.65ZM258.527 28.2L257.334 32.0179L257.366 32.028L257.399 32.0375L258.527 28.2ZM263.527 1.6V-2.4H259.527V1.6H263.527ZM274.277 1.6H278.277V-2.4H274.277V1.6ZM271.377 33.55L268.393 30.8868L271.377 33.55ZM263.027 32.8C261.835 32.8 260.675 32.6359 259.538 32.3071L257.317 39.9929C259.179 40.5308 261.086 40.8 263.027 40.8V32.8ZM259.458 32.2851C258.453 32.017 257.86 31.6535 257.499 31.3188L252.056 37.1812C253.562 38.5798 255.402 39.483 257.397 40.0149L259.458 32.2851ZM258.563 35.5407L260.813 28.9407L253.241 26.3593L250.991 32.9593L258.563 35.5407ZM255.452 31.3266C256.055 31.5852 256.684 31.8147 257.334 32.0179L259.72 24.3821C259.304 24.252 258.933 24.1148 258.603 23.9734L255.452 31.3266ZM257.399 32.0375C258.293 32.3005 259.223 32.45 260.177 32.45V24.45C260.065 24.45 259.895 24.4329 259.656 24.3625L257.399 32.0375ZM260.177 32.45C262.051 32.45 264.147 31.8955 265.69 30.1452C267.149 28.491 267.527 26.4179 267.527 24.65H259.527C259.527 25.0024 259.487 25.1615 259.48 25.1847C259.477 25.195 259.521 25.0461 259.689 24.8548C259.771 24.7621 259.866 24.6784 259.968 24.6088C260.069 24.5399 260.161 24.4966 260.228 24.471C260.358 24.422 260.367 24.45 260.177 24.45V32.45ZM267.527 24.65V1.6H259.527V24.65H267.527ZM263.527 5.6H274.277V-2.4H263.527V5.6ZM270.277 1.6V24H278.277V1.6H270.277ZM270.277 24C270.277 27.65 269.432 29.7217 268.393 30.8868L274.362 36.2132C277.189 33.0449 278.277 28.75 278.277 24H270.277ZM268.393 30.8868C267.402 31.9975 265.829 32.8 263.027 32.8V40.8C267.493 40.8 271.486 39.4359 274.362 36.2132L268.393 30.8868ZM298.666 35.75L296.971 39.3728L297.003 39.3877L297.035 39.402L298.666 35.75ZM294.916 32.75L298.137 30.3772L294.916 32.75ZM292.816 28.3L296.674 27.2411L292.816 28.3ZM291.866 22.8L295.852 22.4622L295.542 18.8H291.866V22.8ZM289.516 22.8V18.8H285.516V22.8H289.516ZM289.516 36V40H293.516V36H289.516ZM278.566 36H274.566V40H278.566V36ZM278.566 1.6V-2.4H274.566V1.6H278.566ZM304.516 4.5L302.007 7.61501L302.031 7.63406L302.055 7.65275L304.516 4.5ZM306.566 17.55L309.85 19.8343L309.862 19.8178L309.873 19.8012L306.566 17.55ZM301.416 21.4L299.816 17.7342L296.915 19.0009L297.481 22.1155L301.416 21.4ZM301.766 23.2L305.678 22.3619V22.3619L301.766 23.2ZM302.216 24.75L298.444 26.0813L298.449 26.0949L298.454 26.1086L302.216 24.75ZM303.816 27.25L301.444 30.4702L301.483 30.4991L301.523 30.5269L303.816 27.25ZM308.716 27.65L312.706 27.3581L312.351 22.5126L307.664 23.7909L308.716 27.65ZM309.316 35.85L310.802 39.5639L313.519 38.477L313.306 35.5581L309.316 35.85ZM307.166 36.5L306.317 32.5913L306.215 32.6135L306.114 32.6409L307.166 36.5ZM289.516 15.95H285.516V19.95H289.516V15.95ZM296.616 15.15L298.499 18.6794L298.519 18.6684L298.54 18.6572L296.616 15.15ZM296.916 9.85L294.76 13.2191L294.809 13.2502L294.858 13.28L296.916 9.85ZM289.516 9.05V5.05H285.516V9.05H289.516ZM304.616 32.8C302.57 32.8 301.19 32.4963 300.298 32.098L297.035 39.402C299.276 40.4037 301.863 40.8 304.616 40.8V32.8ZM300.362 32.1272C299.339 31.6481 298.636 31.0545 298.137 30.3772L291.696 35.1228C293.064 36.9789 294.861 38.3852 296.971 39.3728L300.362 32.1272ZM298.137 30.3772C297.527 29.5505 297.026 28.5245 296.674 27.2411L288.959 29.3589C289.54 31.4755 290.439 33.4162 291.696 35.1228L298.137 30.3772ZM296.674 27.2411C296.279 25.8031 296.001 24.2136 295.852 22.4622L287.881 23.1378C288.066 25.3198 288.421 27.3969 288.959 29.3589L296.674 27.2411ZM291.866 18.8H289.516V26.8H291.866V18.8ZM285.516 22.8V36H293.516V22.8H285.516ZM289.516 32H278.566V40H289.516V32ZM282.566 36V1.6H274.566V36H282.566ZM278.566 5.6H292.716V-2.4H278.566V5.6ZM292.716 5.6C297.901 5.6 300.689 6.55343 302.007 7.61501L307.026 1.38498C303.544 -1.4201 298.465 -2.4 292.716 -2.4V5.6ZM302.055 7.65275C303.454 8.74512 304.166 10.1321 304.166 12.25H312.166C312.166 7.83453 310.446 4.05488 306.978 1.34724L302.055 7.65275ZM304.166 12.25C304.166 13.4457 303.857 14.4219 303.26 15.2988L309.873 19.8012C311.409 17.5447 312.166 14.9876 312.166 12.25H304.166ZM303.283 15.2657C302.771 16.0019 301.753 16.8882 299.816 17.7342L303.017 25.0658C305.813 23.8452 308.229 22.1648 309.85 19.8343L303.283 15.2657ZM297.481 22.1155C297.618 22.8699 297.743 23.5148 297.855 24.0381L305.678 22.3619C305.59 21.9519 305.481 21.3968 305.352 20.6845L297.481 22.1155ZM297.855 24.0381C297.999 24.7082 298.201 25.3926 298.444 26.0813L305.988 23.4187C305.831 22.9741 305.734 22.6251 305.678 22.3619L297.855 24.0381ZM298.454 26.1086C299.004 27.6321 299.889 29.3249 301.444 30.4702L306.189 24.0298C306.354 24.1512 306.378 24.2249 306.31 24.1188C306.242 24.0124 306.122 23.7877 305.979 23.3914L298.454 26.1086ZM301.523 30.5269C303.079 31.6163 304.875 31.95 306.516 31.95V23.95C306.217 23.95 306.055 23.9185 305.995 23.903C305.942 23.8893 306.001 23.8966 306.11 23.9731L301.523 30.5269ZM306.516 31.95C307.618 31.95 308.705 31.7992 309.769 31.5091L307.664 23.7909C307.261 23.9008 306.881 23.95 306.516 23.95V31.95ZM304.727 27.9419L305.327 36.1419L313.306 35.5581L312.706 27.3581L304.727 27.9419ZM307.831 32.1361C307.388 32.3131 306.886 32.4675 306.317 32.5913L308.016 40.4087C308.98 40.1992 309.911 39.9202 310.802 39.5639L307.831 32.1361ZM306.114 32.6409C305.802 32.7261 305.319 32.8 304.616 32.8V40.8C305.847 40.8 307.064 40.6739 308.219 40.3591L306.114 32.6409ZM289.516 19.95H291.416V11.95H289.516V19.95ZM291.416 19.95C293.939 19.95 296.555 19.7162 298.499 18.6794L294.734 11.6206C294.788 11.592 294.596 11.6984 293.958 11.7965C293.355 11.8893 292.521 11.95 291.416 11.95V19.95ZM298.54 18.6572C301.046 17.283 302.166 14.8609 302.166 12.3H294.166C294.166 12.4526 294.138 12.3344 294.265 12.1014C294.327 11.9881 294.407 11.8823 294.497 11.7941C294.585 11.7077 294.659 11.6612 294.693 11.6427L298.54 18.6572ZM302.166 12.3C302.166 10.0378 301.232 7.77451 298.974 6.42003L294.858 13.28C294.673 13.1685 294.444 12.9555 294.291 12.6554C294.152 12.3833 294.166 12.2188 294.166 12.3H302.166ZM299.073 6.48092C297.257 5.31862 294.992 5.05 292.966 5.05V13.05C293.683 13.05 294.184 13.1044 294.51 13.1704C294.846 13.2385 294.879 13.2954 294.76 13.2191L299.073 6.48092ZM292.966 5.05H289.516V13.05H292.966V5.05ZM285.516 9.05V15.95H293.516V9.05H285.516Z" fill="black" mask="url(#path-1-outside-1_613_10)"/>
</svg>
